<?xml version="1.0" encoding="UTF-8" standalone="no"?>
<svg
   xmlns:dc="http://purl.org/dc/elements/1.1/"
   xmlns:cc="http://creativecommons.org/ns#"
   xmlns:rdf="http://www.w3.org/1999/02/22-rdf-syntax-ns#"
   xmlns:svg="http://www.w3.org/2000/svg"
   xmlns="http://www.w3.org/2000/svg"
   xmlns:sodipodi="http://sodipodi.sourceforge.net/DTD/sodipodi-0.dtd"
   xmlns:inkscape="http://www.inkscape.org/namespaces/inkscape"
   width="118.92417mm"
   height="117.49794mm"
   viewBox="0 0 118.92417 117.49794"
   version="1.1"
   id="svg9575"
   inkscape:version="1.0.2-2 (e86c870879, 2021-01-15)"
   sodipodi:docname="board.svg">
  <defs
     id="defs9569">
    <clipPath
       clipPathUnits="userSpaceOnUse"
       id="clipPath995">
      <path
         d="M 0,637.8 H 439.37 V 0 H 0 Z"
         id="path993" />
    </clipPath>
    <clipPath
       clipPathUnits="userSpaceOnUse"
       id="clipPath1003">
      <path
         d="M 53.8784,215.652 H 387.687 v -4.798 H 53.8784 Z"
         id="path1001" />
    </clipPath>
    <clipPath
       clipPathUnits="userSpaceOnUse"
       id="clipPath1019">
      <path
         d="M 56.2725,250.559 H 387.042 V 243.82 H 56.2725 Z"
         id="path1017" />
    </clipPath>
    <clipPath
       clipPathUnits="userSpaceOnUse"
       id="clipPath1035">
      <path
         d="M 57.5596,282.859 H 386.484 v -4.506 H 57.5596 Z"
         id="path1033" />
    </clipPath>
    <clipPath
       clipPathUnits="userSpaceOnUse"
       id="clipPath1051">
      <path
         d="M 56.6523,317.461 H 386.566 v -4.654 H 56.6523 Z"
         id="path1049" />
    </clipPath>
    <clipPath
       clipPathUnits="userSpaceOnUse"
       id="clipPath1067">
      <path
         d="M 55.5786,349.221 H 387.615 v -4.72 H 55.5786 Z"
         id="path1065" />
    </clipPath>
    <clipPath
       clipPathUnits="userSpaceOnUse"
       id="clipPath1083">
      <path
         d="M 54.7305,381.463 H 388.717 V 375.27 H 54.7305 Z"
         id="path1081" />
    </clipPath>
    <clipPath
       clipPathUnits="userSpaceOnUse"
       id="clipPath1099">
      <path
         d="M 57.9043,478.966 H 386.066 v -4.743 H 57.9043 Z"
         id="path1097" />
    </clipPath>
    <clipPath
       clipPathUnits="userSpaceOnUse"
       id="clipPath1115">
      <path
         d="M 56.6357,447.157 H 387.182 v -4.589 H 56.6357 Z"
         id="path1113" />
    </clipPath>
    <clipPath
       clipPathUnits="userSpaceOnUse"
       id="clipPath1131">
      <path
         d="M 54.8354,412.328 H 388.699 v -4.324 H 54.8354 Z"
         id="path1129" />
    </clipPath>
    <clipPath
       clipPathUnits="userSpaceOnUse"
       id="clipPath1151">
      <path
         d="M 87.021,512.14 H 358.173 V 180.625 H 87.021 Z"
         id="path1149" />
    </clipPath>
  </defs>
  <sodipodi:namedview
     id="base"
     pagecolor="#ffffff"
     bordercolor="#666666"
     borderopacity="1.0"
     inkscape:pageopacity="0.0"
     inkscape:pageshadow="2"
     inkscape:zoom="0.7"
     inkscape:cx="222.99147"
     inkscape:cy="351.81245"
     inkscape:document-units="mm"
     inkscape:current-layer="layer1"
     inkscape:document-rotation="0"
     showgrid="false"
     fit-margin-top="0"
     fit-margin-left="0"
     fit-margin-right="0"
     fit-margin-bottom="0"
     inkscape:window-width="1346"
     inkscape:window-height="728"
     inkscape:window-x="4"
     inkscape:window-y="0"
     inkscape:window-maximized="0" />
  <metadata
     id="metadata9572">
    <rdf:RDF>
      <cc:Work
         rdf:about="">
        <dc:format>image/svg+xml</dc:format>
        <dc:type
           rdf:resource="http://purl.org/dc/dcmitype/StillImage" />
        <dc:title></dc:title>
      </cc:Work>
    </rdf:RDF>
  </metadata>
  <g
     inkscape:label="Layer 1"
     inkscape:groupmode="layer"
     id="layer1"
     transform="translate(-116.67482,-30.453415)">
    <g
       transform="matrix(0.35277777,0,0,-0.35277777,98.164482,211.39319)"
       id="g989">
      <g
         id="g991"
         clip-path="url(#clipPath995)">
        <g
           id="g997">
          <g
             id="g999" />
          <g
             id="g1011">
            <g
               clip-path="url(#clipPath1003)"
               opacity="0.199997"
               id="g1009">
              <g
                 transform="translate(54.5972,212.0957)"
                 id="g1007">
                <path
                   d="m 0,0 c 13.439,-1.311 27,-1.257 40.474,-0.56 5.98,0.309 11.918,0.986 17.913,0.935 5.772,-0.05 11.516,-0.842 17.266,-1.264 10.1,-0.742 20.425,-0.119 30.547,0.109 9.954,0.223 19.917,0.467 29.859,1.019 9.2,0.512 18.288,1.59 27.527,1.735 12.221,0.192 24.451,-0.124 36.67,-0.29 30.03,-0.411 60.069,-0.434 90.1,-0.456 14.003,-0.01 28.005,0.004 42.008,0.026 0.967,0.002 0.968,1.502 0,1.5 C 303.968,2.71 275.574,2.712 247.179,2.836 219.326,2.957 191.437,3.824 163.586,3.474 154.344,3.358 145.259,2.286 136.059,1.739 126.121,1.149 116.151,0.95 106.2,0.72 96.057,0.484 85.78,-0.03 75.653,0.611 70.362,0.946 65.105,1.628 59.804,1.84 53.345,2.098 46.914,1.306 40.474,0.94 27.017,0.176 13.422,0.191 0,1.5 -0.963,1.594 -0.954,0.093 0,0"
                   style="fill:#231f20;fill-opacity:1;fill-rule:nonzero;stroke:none"
                   id="path1005" />
              </g>
            </g>
          </g>
        </g>
        <g
           id="g1013">
          <g
             id="g1015" />
          <g
             id="g1027">
            <g
               clip-path="url(#clipPath1019)"
               opacity="0.199997"
               id="g1025">
              <g
                 transform="translate(386.3174,250.4629)"
                 id="g1023">
                <path
                   d="m 0,0 c -27.807,-1.068 -55.595,-3.106 -83.436,-2.925 -28.051,0.184 -56.003,3.199 -84.071,3.012 -12.932,-0.087 -25.734,-1.566 -38.636,-2.053 -13.51,-0.509 -27.046,-0.12 -40.562,-0.226 -27.549,-0.219 -55.044,-2.677 -82.614,-2.951 -0.967,-0.009 -0.968,-1.509 0,-1.5 26.959,0.268 53.828,2.555 80.764,2.93 13.048,0.183 26.099,-0.134 39.146,0.151 13.367,0.293 26.641,1.906 40.021,2.127 28.098,0.464 56.099,-2.56 84.176,-2.971 C -56.789,-4.821 -28.386,-2.591 0,-1.5 0.964,-1.463 0.968,0.037 0,0"
                   style="fill:#231f20;fill-opacity:1;fill-rule:nonzero;stroke:none"
                   id="path1021" />
              </g>
            </g>
          </g>
        </g>
        <g
           id="g1029">
          <g
             id="g1031" />
          <g
             id="g1043">
            <g
               clip-path="url(#clipPath1035)"
               opacity="0.199997"
               id="g1041">
              <g
                 transform="translate(385.7588,281.7217)"
                 id="g1039">
                <path
                   d="m 0,0 c -55.309,-0.162 -110.613,-0.83 -165.922,-1.003 -27.639,-0.087 -55.323,4.247 -82.864,0.82 -26.014,-3.236 -52.55,-1.076 -78.688,-1.131 -0.967,-0.002 -0.967,-1.502 0,-1.5 26.192,0.055 52.602,-1.864 78.688,1.131 27.607,3.17 55.177,-0.901 82.864,-0.82 C -110.613,-2.342 -55.309,-1.662 0,-1.5 0.967,-1.497 0.968,0.003 0,0"
                   style="fill:#231f20;fill-opacity:1;fill-rule:nonzero;stroke:none"
                   id="path1037" />
              </g>
            </g>
          </g>
        </g>
        <g
           id="g1045">
          <g
             id="g1047" />
          <g
             id="g1059">
            <g
               clip-path="url(#clipPath1051)"
               opacity="0.199997"
               id="g1057">
              <g
                 transform="translate(385.8418,317.4609)"
                 id="g1055">
                <path
                   d="m 0,0 c -27.037,-0.552 -54.019,-2.85 -81.072,-2.684 -27.561,0.169 -55.083,0.318 -82.651,0.15 -54.879,-0.334 -109.935,-1.988 -164.744,1.546 -0.966,0.062 -0.96,-1.439 0,-1.5 54.168,-3.493 108.526,-1.763 162.76,-1.556 27.584,0.106 55.113,0.309 82.693,-0.119 C -55.318,-4.593 -27.676,-2.065 0,-1.5 0.966,-1.48 0.968,0.02 0,0"
                   style="fill:#231f20;fill-opacity:1;fill-rule:nonzero;stroke:none"
                   id="path1053" />
              </g>
            </g>
          </g>
        </g>
        <g
           id="g1061">
          <g
             id="g1063" />
          <g
             id="g1075">
            <g
               clip-path="url(#clipPath1067)"
               opacity="0.199997"
               id="g1073">
              <g
                 transform="translate(56.3013,345.2153)"
                 id="g1071">
                <path
                   d="m 0,0 c 13.931,-0.903 27.953,-0.713 41.868,0.373 12.084,0.943 23.79,-0.948 35.841,-1.071 9.831,-0.101 19.708,0.292 29.536,0.549 9.21,0.242 18.571,0.187 27.73,1.271 22.739,2.691 45.982,1.165 68.81,0.924 29.873,-0.316 59.75,-0.347 89.624,-0.349 12.393,-0.001 24.786,0.016 37.179,0.037 0.967,0.001 0.968,1.501 0,1.5 C 302.173,3.186 273.759,3.177 245.344,3.291 217.099,3.403 188.836,4.167 160.593,3.974 141.472,3.843 122.417,1.723 103.283,1.25 93.228,1.002 83.06,0.526 73.009,0.916 67.664,1.123 62.351,1.831 57.015,2.183 50.49,2.613 44.046,1.992 37.542,1.562 25.06,0.736 12.483,0.691 0,1.5 -0.966,1.562 -0.96,0.062 0,0"
                   style="fill:#231f20;fill-opacity:1;fill-rule:nonzero;stroke:none"
                   id="path1069" />
              </g>
            </g>
          </g>
        </g>
        <g
           id="g1077">
          <g
             id="g1079" />
          <g
             id="g1091">
            <g
               clip-path="url(#clipPath1083)"
               opacity="0.199997"
               id="g1089">
              <g
                 transform="translate(387.9912,380.3018)"
                 id="g1087">
                <path
                   d="m 0,0 c -29.104,-0.565 -58.177,-0.562 -87.273,0.417 -28.547,0.96 -57.153,1.12 -85.687,-0.287 -12.65,-0.623 -25.234,-2.067 -37.9,-2.344 -13.727,-0.3 -27.461,0.067 -41.19,-0.173 -13.074,-0.228 -26.07,-1.274 -39.157,-1.137 -13.781,0.144 -27.551,0.835 -41.329,1.137 -0.967,0.021 -0.965,-1.479 0,-1.5 13.203,-0.29 26.396,-0.895 39.601,-1.113 13.051,-0.217 25.998,0.742 39.033,1.074 13.786,0.351 27.579,-0.007 41.367,0.183 13.227,0.181 26.37,1.687 39.575,2.373 27.946,1.453 55.981,1.216 83.942,0.343 C -59.332,-1.954 -29.695,-2.076 0,-1.5 0.966,-1.481 0.968,0.019 0,0"
                   style="fill:#231f20;fill-opacity:1;fill-rule:nonzero;stroke:none"
                   id="path1085" />
              </g>
            </g>
          </g>
        </g>
        <g
           id="g1093">
          <g
             id="g1095" />
          <g
             id="g1107">
            <g
               clip-path="url(#clipPath1099)"
               opacity="0.199997"
               id="g1105">
              <g
                 transform="translate(385.3408,478.1646)"
                 id="g1103">
                <path
                   d="m 0,0 c -28.471,-0.044 -56.941,-0.044 -85.412,0.079 -27.882,0.121 -55.798,0.99 -83.677,0.64 -9.242,-0.116 -18.327,-1.186 -27.527,-1.735 -9.938,-0.592 -19.908,-0.79 -29.859,-1.021 -10.143,-0.235 -20.42,-0.751 -30.547,-0.109 -5.291,0.336 -10.547,1.018 -15.848,1.229 -6.592,0.264 -13.16,-0.557 -19.733,-0.921 -11.352,-0.63 -22.764,-0.631 -34.111,0.08 -0.966,0.061 -0.96,-1.44 0,-1.5 13.79,-0.864 27.665,-0.672 41.438,0.405 12.078,0.945 23.781,-0.948 35.827,-1.072 9.831,-0.101 19.708,0.293 29.535,0.55 9.21,0.242 18.572,0.187 27.73,1.27 22.74,2.689 45.982,1.165 68.811,0.924 29.875,-0.315 59.756,-0.346 89.632,-0.349 C -22.494,-1.531 -11.247,-1.518 0,-1.5 0.967,-1.499 0.968,0.001 0,0"
                   style="fill:#231f20;fill-opacity:1;fill-rule:nonzero;stroke:none"
                   id="path1101" />
              </g>
            </g>
          </g>
        </g>
        <g
           id="g1109">
          <g
             id="g1111" />
          <g
             id="g1123">
            <g
               clip-path="url(#clipPath1115)"
               opacity="0.199997"
               id="g1121">
              <g
                 transform="translate(57.3584,444.8276)"
                 id="g1119">
                <path
                   d="m 0,0 c 54.145,-3.626 108.458,-1.833 162.673,-1.695 27.614,0.071 55.181,0.479 82.794,-0.083 27.9,-0.567 55.754,1.981 83.632,2.607 0.965,0.022 0.967,1.522 0,1.5 -27.237,-0.611 -54.418,-2.924 -81.675,-2.637 -27.603,0.291 -55.159,0.26 -82.766,0.121 C 109.798,-0.462 54.785,-2.169 0,1.5 -0.966,1.565 -0.96,0.064 0,0"
                   style="fill:#231f20;fill-opacity:1;fill-rule:nonzero;stroke:none"
                   id="path1117" />
              </g>
            </g>
          </g>
        </g>
        <g
           id="g1125">
          <g
             id="g1127" />
          <g
             id="g1139">
            <g
               clip-path="url(#clipPath1131)"
               opacity="0.199997"
               id="g1137">
              <g
                 transform="translate(55.561,408.6206)"
                 id="g1135">
                <path
                   d="m 0,0 c 26.415,0.051 53.118,-1.82 79.451,0.718 14.329,1.381 28.082,2.157 42.493,1.306 14.11,-0.832 28.105,-1.749 42.249,-1.711 56.074,0.153 112.145,0.851 168.22,1.013 0.966,0.003 0.967,1.503 0,1.5 C 276.965,2.666 221.521,1.994 166.074,1.819 137.707,1.729 109.659,5.671 81.365,2.42 54.489,-0.668 26.993,1.552 0,1.5 -0.967,1.498 -0.967,-0.002 0,0"
                   style="fill:#231f20;fill-opacity:1;fill-rule:nonzero;stroke:none"
                   id="path1133" />
              </g>
            </g>
          </g>
        </g>
        <g
           id="g1141"
           transform="translate(57.7124,182.8975)">
          <path
             d="m 0,0 c -5.164,23.47 -0.3,48.479 1.433,72.094 2.045,27.883 -0.15,56.256 -1.094,84.156 -0.979,28.939 -1.653,57.815 -0.123,86.746 1.453,27.482 3.888,55.077 1.81,82.591 -0.632,-0.482 -1.265,-0.964 -1.899,-1.446 4.906,-0.789 10.047,-0.664 14.997,-0.826 8.727,-0.283 17.458,-0.468 26.187,-0.638 11.963,-0.235 23.795,-0.344 35.742,0.162 37.567,1.589 75.167,2.398 112.747,3.596 19.979,0.636 39.918,0.48 59.906,0.419 26.926,-0.083 53.718,-3.669 80.657,-3.75 l -1.5,1.5 c -0.785,-11.471 -2.583,-22.877 -2.489,-34.398 0.106,-12.995 1.028,-26.051 1.537,-39.039 1.087,-27.728 1.111,-55.169 -0.056,-82.902 -1.177,-27.989 -1.685,-55.898 -1.244,-83.91 0.44,-27.974 1.258,-55.945 0.83,-83.925 l 1.5,1.5 C 299.332,4.007 270.035,1.474 240.444,0.686 210.356,-0.116 180.218,1.111 150.122,1.1 122.954,1.089 95.784,1.021 68.618,0.639 45.72,0.317 22.937,-0.396 0.054,0.994 -0.447,1.025 -0.95,1.051 -1.45,1.099 c 0.354,-0.854 0.708,-1.707 1.061,-2.562 0.001,0.002 0.002,0.003 0.003,0.004 1.338,1.397 -0.781,3.521 -2.121,2.121 C -2.508,0.661 -2.509,0.66 -2.51,0.659 c -0.963,-1.006 -0.212,-2.441 1.06,-2.56 20.61,-1.937 41.436,-0.948 62.085,-0.585 27.318,0.479 54.643,0.553 81.965,0.581 29.408,0.029 58.822,-0.843 88.228,-0.577 29.559,0.266 58.983,3.384 88.561,1.996 3.187,-0.151 6.37,-0.361 9.552,-0.584 0.825,-0.058 1.488,0.726 1.5,1.5 0.417,27.331 -0.333,54.655 -0.798,81.98 -0.476,28.014 -0.054,55.934 1.131,83.923 1.174,27.738 1.343,55.205 0.212,82.942 -0.535,13.134 -0.901,26.278 -1.569,39.406 -0.61,11.975 1.629,24.005 2.446,35.923 0.055,0.819 -0.725,1.498 -1.5,1.5 -16.072,0.048 -32.097,1.208 -48.125,2.277 -16.164,1.078 -32.263,1.435 -48.456,1.587 -20.289,0.191 -40.507,-0.442 -60.78,-1.05 -20.355,-0.609 -40.71,-1.192 -61.064,-1.841 -15.362,-0.489 -30.859,-1.803 -46.222,-1.776 -10.647,0.019 -21.301,0.301 -31.945,0.531 -10.729,0.23 -22.218,-0.508 -32.846,1.202 -0.887,0.143 -1.979,-0.386 -1.899,-1.447 2.077,-27.506 -0.322,-55.117 -1.81,-82.591 -1.602,-29.576 -0.811,-59.11 0.189,-88.693 0.94,-27.791 2.954,-55.949 0.917,-83.722 C -3.4,47.113 -8.026,22.532 -2.893,-0.797 -2.477,-2.687 0.415,-1.885 0,0"
             style="fill:#231f20;fill-opacity:1;fill-rule:nonzero;stroke:none"
             id="path1143" />
        </g>
        <g
           id="g1145">
          <g
             id="g1147" />
          <g
             id="g1191">
            <g
               clip-path="url(#clipPath1151)"
               opacity="0.199997"
               id="g1189">
              <g
                 transform="translate(153.5986,507.9692)"
                 id="g1155">
                <path
                   d="m 0,0 c 0.367,-53.644 2.163,-107.266 2.678,-160.908 0.126,-13.216 0.133,-26.366 -0.739,-39.56 -0.964,-14.588 -2.17,-29.141 -0.937,-43.753 1.145,-13.569 2.62,-26.807 2.564,-40.464 -0.055,-13.648 -0.524,-27.285 -0.498,-40.936 0.002,-0.966 1.502,-0.967 1.5,0 -0.025,13.062 0.339,26.109 0.484,39.168 0.159,14.236 -1.136,28.097 -2.55,42.232 -1.391,13.907 -0.157,27.962 0.808,41.852 0.96,13.832 0.993,27.605 0.868,41.461 C 3.693,-107.266 1.867,-53.644 1.5,0 1.493,0.967 -0.007,0.968 0,0"
                   style="fill:#231f20;fill-opacity:1;fill-rule:nonzero;stroke:none"
                   id="path1153" />
              </g>
              <g
                 transform="translate(193.6782,181.9014)"
                 id="g1159">
                <path
                   d="m 0,0 c -0.301,27.458 -2.936,54.814 -3.007,82.265 -0.033,12.819 0.256,25.647 -0.397,38.456 -0.66,12.95 -2.022,25.84 -2.51,38.812 -1.019,27.099 -0.474,54.21 0.438,81.302 0.961,28.563 0.64,57.142 0.019,85.709 -0.021,0.966 -1.521,0.968 -1.5,0 0.607,-27.917 0.886,-55.833 0.043,-83.749 -0.819,-27.162 -1.455,-54.287 -0.563,-81.459 0.412,-12.541 1.424,-25.002 2.377,-37.506 1.006,-13.193 0.602,-26.491 0.592,-39.709 C -4.53,56.05 -1.808,28.076 -1.5,0 -1.489,-0.967 0.011,-0.968 0,0"
                   style="fill:#231f20;fill-opacity:1;fill-rule:nonzero;stroke:none"
                   id="path1157" />
              </g>
              <g
                 transform="translate(119.1001,506.7319)"
                 id="g1163">
                <path
                   d="m 0,0 c 0.322,-26.895 2.7,-53.719 2.799,-80.62 0.101,-27.343 -0.415,-54.681 -0.192,-82.036 0.439,-53.99 1.994,-108.188 -1.244,-162.117 -0.058,-0.967 1.443,-0.961 1.5,0 3.238,53.935 1.636,108.121 1.244,162.117 -0.194,26.705 0.048,53.364 0.191,80.063 C 4.446,-55.036 1.83,-27.548 1.5,0 1.488,0.967 -0.012,0.968 0,0"
                   style="fill:#231f20;fill-opacity:1;fill-rule:nonzero;stroke:none"
                   id="path1161" />
              </g>
              <g
                 transform="translate(87.7954,507.2939)"
                 id="g1167">
                <path
                   d="m 0,0 c 0.104,-56.813 -0.934,-113.634 -0.753,-170.439 0.06,-19.086 2.236,-38.088 2.734,-57.18 0.26,-9.973 0.701,-20.034 0.421,-30.008 -0.154,-5.531 -0.906,-11.029 -1.302,-16.545 -0.48,-6.696 0.172,-13.3 0.618,-19.974 0.707,-10.577 0.787,-21.209 0.338,-31.798 -0.041,-0.968 1.459,-0.964 1.5,0 0.611,14.401 -0.493,28.559 -1.114,42.919 -0.509,11.803 1.478,23.682 1.409,35.523 -0.107,18.53 -0.674,37.04 -2.288,55.491 -2.143,24.499 -0.452,49.422 -0.279,73.97 0.206,29.185 0.275,58.369 0.257,87.553 C 1.535,-20.325 1.519,-10.163 1.5,0 1.498,0.967 -0.002,0.967 0,0"
                   style="fill:#231f20;fill-opacity:1;fill-rule:nonzero;stroke:none"
                   id="path1165" />
              </g>
              <g
                 transform="translate(221.8506,181.168)"
                 id="g1171">
                <path
                   d="m 0,0 h 0.176 c 0.418,0 0.737,0.342 0.75,0.75 0.431,14.429 -1.198,28.669 -1.28,43.05 -0.065,11.354 1.552,22.621 1.441,34.018 -0.183,18.774 -1.042,37.41 -2.449,56.111 -1.887,25.084 -0.243,50.54 -0.075,75.661 0.195,29.242 0.251,58.484 0.226,87.726 -0.008,10.309 -0.027,20.618 -0.046,30.926 -0.002,0.967 -1.502,0.967 -1.5,0 0.11,-57.457 -0.669,-114.904 -0.75,-172.356 -0.028,-19.113 2.142,-38.1 2.669,-57.204 0.271,-9.784 0.523,-19.583 0.557,-29.369 C -0.239,56.914 -2.228,44.982 -1.24,32.529 -1.007,29.593 -0.305,1.5 0,1.5 -0.967,1.5 -0.967,0 0,0"
                   style="fill:#231f20;fill-opacity:1;fill-rule:nonzero;stroke:none"
                   id="path1169" />
              </g>
              <g
                 transform="translate(317.9424,510.9717)"
                 id="g1175">
                <path
                   d="m 0,0 c 0.551,-26.35 0.333,-52.698 1.887,-79.019 1.634,-27.686 -0.087,-55.233 -0.985,-82.912 -0.833,-25.711 1.734,-51.224 1.649,-76.931 -0.099,-29.682 2.546,-59.217 2.957,-88.889 0.013,-0.967 1.513,-0.968 1.5,0 -0.411,29.672 -3.053,59.207 -2.957,88.889 0.082,25.709 -2.43,51.217 -1.649,76.931 0.842,27.677 2.684,55.228 0.985,82.912 C 1.771,-52.704 2.051,-26.346 1.5,0 1.479,0.966 -0.021,0.968 0,0"
                   style="fill:#231f20;fill-opacity:1;fill-rule:nonzero;stroke:none"
                   id="path1173" />
              </g>
              <g
                 transform="translate(357.9258,184.3633)"
                 id="g1179">
                <path
                   d="m 0,0 c 0.549,14.568 -0.846,28.889 -1.199,43.411 -0.281,11.561 1.535,23.115 1.443,34.716 -0.148,18.663 -0.863,37.238 -2.374,55.825 -2.013,24.772 -0.346,49.942 -0.175,74.757 0.2,28.999 0.263,57.999 0.243,86.998 -0.006,9.568 -0.022,19.136 -0.04,28.704 -0.002,0.967 -1.502,0.967 -1.5,0 0.105,-56.67 -0.933,-113.35 -0.752,-170.013 0.06,-19.086 2.236,-38.087 2.733,-57.178 C -1.36,87.247 -0.919,77.185 -1.199,67.212 -1.355,61.679 -2.107,56.182 -2.503,50.666 -2.985,43.93 -2.323,37.288 -1.877,30.574 -1.201,20.404 -1.116,10.184 -1.5,0 -1.536,-0.968 -0.036,-0.964 0,0"
                   style="fill:#231f20;fill-opacity:1;fill-rule:nonzero;stroke:none"
                   id="path1177" />
              </g>
              <g
                 transform="translate(253.3887,182.168)"
                 id="g1183">
                <path
                   d="m 0,0 c 3.204,55.828 1.619,111.982 1.053,167.87 -0.275,27.089 0.37,54.132 0.375,81.212 0.005,26.589 -1.384,53.156 -1.605,79.743 -0.008,0.967 -1.508,0.968 -1.5,0 0.216,-25.987 1.487,-51.953 1.601,-77.942 0.119,-27.024 -0.687,-54.024 -0.392,-81.06 C 0.148,113.293 1.74,56.471 -1.5,0 -1.556,-0.967 -0.055,-0.962 0,0"
                   style="fill:#231f20;fill-opacity:1;fill-rule:nonzero;stroke:none"
                   id="path1181" />
              </g>
              <g
                 transform="translate(284.8955,511.4146)"
                 id="g1187">
                <path
                   d="m 0,0 c 0.368,-53.598 2.044,-107.176 2.634,-160.771 0.144,-13.098 0.396,-26.205 -0.326,-39.291 -0.805,-14.576 -2.31,-29.092 -1.698,-43.709 0.599,-14.288 2.906,-28.316 2.973,-42.678 0.067,-14.348 -0.54,-28.693 -0.508,-43.045 0.002,-0.966 1.502,-0.967 1.5,0 -0.031,13.763 0.451,27.514 0.508,41.275 0.059,14.338 -1.876,28.283 -2.866,42.533 -1.013,14.561 0.559,29.195 1.477,43.719 0.868,13.717 0.584,27.462 0.44,41.196 C 3.569,-107.175 1.868,-53.598 1.5,0 1.493,0.967 -0.007,0.968 0,0"
                   style="fill:#231f20;fill-opacity:1;fill-rule:nonzero;stroke:none"
                   id="path1185" />
              </g>
            </g>
          </g>
        </g>
      </g>
    </g>
  </g>
</svg>
