<?xml version="1.0" encoding="UTF-8" standalone="no"?>
<svg
   xmlns:dc="http://purl.org/dc/elements/1.1/"
   xmlns:cc="http://creativecommons.org/ns#"
   xmlns:rdf="http://www.w3.org/1999/02/22-rdf-syntax-ns#"
   xmlns:svg="http://www.w3.org/2000/svg"
   xmlns="http://www.w3.org/2000/svg"
   xmlns:sodipodi="http://sodipodi.sourceforge.net/DTD/sodipodi-0.dtd"
   xmlns:inkscape="http://www.inkscape.org/namespaces/inkscape"
   width="50mm"
   height="20mm"
   viewBox="0 0 50 20"
   version="1.1"
   id="svg8"
   inkscape:version="1.0 (4035a4fb49, 2020-05-01)"
   sodipodi:docname="btsp_03.svg">
  <defs
     id="defs2">
    <pattern
       y="0"
       x="0"
       height="6"
       width="6"
       patternUnits="userSpaceOnUse"
       id="EMFhbasepattern" />
    <pattern
       y="0"
       x="0"
       height="6"
       width="6"
       patternUnits="userSpaceOnUse"
       id="EMFhbasepattern-6" />
  </defs>
  <sodipodi:namedview
     id="base"
     pagecolor="#ffffff"
     bordercolor="#666666"
     borderopacity="1.0"
     inkscape:pageopacity="0.0"
     inkscape:pageshadow="2"
     inkscape:zoom="3.959798"
     inkscape:cx="63.792108"
     inkscape:cy="60.304419"
     inkscape:document-units="mm"
     inkscape:current-layer="layer1"
     inkscape:document-rotation="0"
     showgrid="false"
     fit-margin-top="0"
     fit-margin-left="0"
     fit-margin-right="0"
     fit-margin-bottom="0"
     inkscape:window-width="1375"
     inkscape:window-height="967"
     inkscape:window-x="443"
     inkscape:window-y="1114"
     inkscape:window-maximized="0" />
  <metadata
     id="metadata5">
    <rdf:RDF>
      <cc:Work
         rdf:about="">
        <dc:format>image/svg+xml</dc:format>
        <dc:type
           rdf:resource="http://purl.org/dc/dcmitype/StillImage" />
        <dc:title></dc:title>
      </cc:Work>
    </rdf:RDF>
  </metadata>
  <g
     inkscape:label="Layer 1"
     inkscape:groupmode="layer"
     id="layer1"
     transform="translate(-120.24804,-122.32121)">
    <path
       id="ship_bts__mainGun03"
       d="m 141.0382,132.39703 c -2.02847,-0.79375 -3.96875,-2.20486 -6.08541,-2.29305 -0.17639,0 -0.35278,0.44097 -0.35278,0.61736 -0.17639,0.0882 -0.35278,0.61736 -0.17639,0.61736 1.94028,0.35278 3.61597,1.41111 5.55625,2.02847 0.70556,0.26459 1.49931,0.44097 2.20486,0.70556 0.35278,0.17639 0.61736,0.26458 0.97014,0.35278 -0.0882,0.17638 0,0.26458 0,0.26458 0.35278,0 0.61736,0.0882 0.70556,-0.26458 0,0 0.0882,-0.0882 0.0882,-0.17639 0.0882,0 0.17639,0.0882 0.26458,0.0882 0,0.0882 0,0.0882 0.0882,0.17639 0.0882,0 0.17639,0 0.26458,0.0882 0.26459,0.0882 0.44097,-0.52916 0.26459,-0.61736 -1.05834,-0.79375 -2.64584,-1.14652 -3.79237,-1.5875 z m -1.94027,-0.0882 c -1.14653,-0.52917 -2.29306,-1.05833 -3.52778,-1.41111 1.23472,0.26458 2.38125,0.79375 3.52778,1.41111 z"
       style="fill:#000000;fill-opacity:1;fill-rule:nonzero;stroke:none;stroke-width:0.264583" />
    <path
       id="ship_bts__mainGun02"
       d="m 147.82918,134.5137 c 0,0 0,0 0.0882,0 0.79375,-1.5875 -8.11389,-4.58611 -9.17222,-5.73264 -0.17639,-0.26458 -0.52917,0.35278 -0.35278,0.52917 0,0.0882 0.0882,0.17639 0.17639,0.26458 -0.26458,-0.17639 -0.61736,-0.26458 -0.97014,-0.44097 -0.17639,0 -0.44097,0.61736 -0.26458,0.70555 1.94028,0.70556 3.79236,1.6757 5.64444,2.64584 1.05834,0.61736 2.11667,1.14653 3.175,1.85208 0.35278,0.17639 1.94028,1.41111 2.02847,1.32292 -0.17638,0.26458 -0.0882,0.70555 0.17639,0.35278 0.26459,-0.52917 0,-1.05834 -0.52916,-1.49931 z m -0.17639,-0.26458 c 0,0 0,0.0882 0,0.0882 0,0 -0.0882,0 -0.0882,0 0.0882,0 0.0882,-0.0882 0.0882,-0.0882 z"
       style="fill:#000000;fill-opacity:1;fill-rule:nonzero;stroke:none;stroke-width:0.264583" />
    <path
       id="ship_bts__mainGun01"
       d="m 152.59168,133.89634 c -2.55764,-1.94028 -6.79098,-1.76389 -8.81945,-4.40972 -0.0882,-0.17639 -0.44097,0.26458 -0.35278,0.52916 -0.26458,-0.17639 -0.61736,-0.26458 -0.88194,-0.44097 -0.17639,-0.0882 -0.52917,0.52917 -0.26458,0.61736 3.175,1.41111 5.99722,3.61597 9.34861,4.7625 0.17639,0.0882 0.35278,-0.35278 0.35278,-0.52916 0.0882,0.0882 0.17638,0.0882 0.35277,0.17638 0.17639,0 0.44098,-0.52916 0.26459,-0.70555 z m -0.88195,0.35278 c -0.44097,-0.17639 -0.79375,-0.35278 -1.23472,-0.61736 0,0 -0.0882,0 -0.17639,0.0882 -0.52917,-0.26458 -1.05833,-0.52917 -1.5875,-0.79375 1.05833,0.35278 2.11667,0.70556 2.99861,1.23472 0,0.0882 0,0.0882 0,0.0882 z"
       style="fill:#000000;fill-opacity:1;fill-rule:nonzero;stroke:none;stroke-width:0.264583" />
    <path
       id="ship_bts__body"
       d="m 168.29029,135.13106 c 0.0882,-0.0882 0.17639,-0.17639 0.17639,-0.17639 0.17639,-0.17639 0.26458,-0.88194 0,-0.61736 -0.26459,0.26458 -0.44098,0.52917 -0.70556,0.88195 0,0 -0.0882,0 -0.17639,0.0882 0,0 0,0 0,0 0.17639,-0.17639 0.35278,-0.61736 0.0882,-0.61736 -0.0882,0 -0.17639,0 -0.26459,0 -0.0882,0 -0.0882,-0.0882 -0.0882,-0.0882 -0.0882,0.0882 -0.17639,0.0882 -0.26458,0.0882 -0.26459,0 -0.52917,0 -0.88195,0 -0.17639,0 -0.26458,-0.0882 -0.44097,-0.17639 -0.0882,-0.0882 -0.17639,0.0882 -0.26458,0.17639 -0.0882,0 -0.0882,0 -0.17639,0 0.0882,-0.0882 0,-0.17639 -0.0882,-0.17639 -0.0882,0 -0.26458,0 -0.44097,0 0.0882,-0.17639 0.17639,-0.26458 0.17639,-0.35278 0,-0.17639 -0.0882,-0.35278 -0.17639,-0.52916 0.97014,-0.52917 1.94028,-1.14653 2.82222,-1.76389 0.17639,-0.0882 0.35278,-0.79375 0.0882,-0.61736 -0.97014,0.70555 -2.02848,1.32291 -3.175,1.94027 -0.17639,-0.17639 -0.35278,-0.26458 -0.52917,-0.44097 0.79375,-0.52917 1.67569,-0.97014 2.55764,-1.41111 0.17639,-0.0882 0.35278,-0.70556 0.0882,-0.61736 -1.14652,0.52917 -2.20486,1.14653 -3.26319,1.76389 -0.35278,-0.0882 -0.70556,-0.17639 -0.97014,-0.26459 -0.0882,0 -0.17639,0.0882 -0.26458,0.26459 -0.26459,0 -0.52917,0 -0.70556,0.35278 0,0.0882 0,0.17638 0,0.26458 -0.0882,0 -0.0882,0 -0.0882,0 0,-0.0882 0,-0.17639 -0.0882,-0.17639 -0.17639,-0.0882 -0.35278,-0.17639 -0.44097,-0.35278 0,-0.0882 0.0882,-0.0882 0.0882,-0.17639 0,0 0,0 0,-0.0882 0.26459,0 0.52917,-0.0882 0.79375,-0.17639 0.26459,-0.0882 0.44098,-0.70556 0.26459,-0.70556 -0.35278,0.17639 -0.61736,0.17639 -0.97014,0.26459 0,-0.17639 0.0882,-0.35278 0.17639,-0.52917 0.17639,-0.0882 0.35278,-0.0882 0.52916,-0.17639 0.26459,0 0.44098,-0.70555 0.17639,-0.61736 -0.17639,0 -0.26458,0.0882 -0.44097,0.0882 0,0 0,-0.0882 -0.0882,-0.0882 -0.26459,-0.0882 -0.61736,-0.17639 -0.88195,-0.26458 0,-0.0882 0,-0.26459 -0.0882,-0.35278 -1.5875,-0.26458 -3.175,-0.26458 -4.7625,0.17639 -0.17639,0 -0.26459,0.35278 -0.26459,0.52917 0,0.17638 0.0882,0.26458 0.26459,0.44097 -0.44097,0 -0.88195,0.0882 -1.23472,0.17639 -0.26459,0 -0.44098,0.70555 -0.26459,0.61736 0.79375,-0.0882 1.49931,-0.17639 2.29306,-0.26459 0,0.0882 0,0.17639 0,0.26459 -0.44097,0 -0.88195,0.17639 -1.32292,0.26458 0,0 0,0 0,0 -0.17639,0.0882 -0.35278,0.61736 -0.17639,0.61736 0,0 0,0.0882 0,0.0882 0,0 0,0 0,0 0.52917,0.0882 1.05834,0.0882 1.6757,0 0,0.0882 0,0.0882 0,0.0882 -1.05834,0 -2.02848,0.0882 -3.08681,-0.0882 -0.26458,-0.0882 -0.44097,0.44097 -0.35278,0.61736 -0.0882,0 -0.17639,0 -0.26458,0 -0.0882,0 -0.0882,0.0882 -0.0882,0.0882 -0.0882,0 -0.0882,0.0882 -0.17639,0.0882 -1.05834,-1.14653 -2.38125,-2.02848 -3.79236,-0.97014 -0.17639,0.0882 -0.35278,0.70555 -0.0882,0.61736 -0.0882,0.0882 -0.17639,0.26458 -0.17639,0.35278 -0.52916,0.0882 -0.97014,0.0882 -1.41111,0.17639 -0.35278,0.0882 -0.79375,0.35277 -0.97014,0.61736 -2.02847,-0.26459 -3.96875,-0.52917 -5.99722,-0.88195 -3.52778,-0.70555 -7.23194,-1.41111 -10.58333,-2.73403 0.0882,-0.17638 0,-0.35277 -0.0882,-0.35277 -0.26458,0 -0.61736,-0.0882 -0.88194,-0.0882 -0.17639,-0.0882 -0.26459,-0.17639 -0.44097,-0.26458 -0.0882,0 -0.0882,0.0882 -0.17639,0.0882 -0.70556,-0.17639 -1.41111,-0.44097 -2.02848,-0.88194 -0.0882,-0.0882 -0.88194,0 -1.05833,0 -0.52917,0.0882 -1.14653,0.0882 -1.67569,0.26458 -0.17639,0 -0.26459,0.35278 -0.26459,0.52917 0,0 0,0.0882 0,0.0882 -0.26458,0.0882 -0.52916,0.17639 -0.79375,0.26459 -0.17639,0.0882 -0.44097,0.61736 -0.26458,0.70555 0.61736,0.0882 1.23472,0.26459 1.67569,0.61736 -0.0882,0.0882 -0.0882,0.26459 0,0.35278 0.17639,0.17639 0.35278,0.35278 0.52917,0.52917 -0.0882,0.26458 -0.0882,0.44097 0,0.35278 0.0882,0 0.17639,0 0.26458,0 0.26459,0.26458 0.61737,0.52916 0.88195,0.88194 -0.0882,0 -0.17639,0 -0.17639,-0.0882 -0.26458,0 -0.44097,0.70555 -0.26458,0.70555 0.61736,0 1.23472,0.44097 1.76389,1.05833 -0.17639,0.0882 -0.35278,0.52917 -0.17639,0.61737 0.35277,0.17638 0.70555,0.44097 0.88194,0.79375 0,0.0882 0,0.17638 0,0.26458 -0.0882,0.0882 -0.17639,0.17639 -0.17639,0.17639 0,0.0882 0,0.0882 0,0.0882 0,0 0,0 0,0 0,0 0,0 0,0.0882 0,0.17639 0,0.26458 0,0.35277 0,0.0882 0,0.17639 0.0882,0.26459 0,0.17639 0,0.26458 0,0.35278 0,0.0882 0,0.0882 -0.0882,0.0882 0,0 0,0 -0.0882,0 -0.17639,0 -0.35278,0.70556 -0.17639,0.70556 0.17639,0 0.35278,0 0.52917,0 0.0882,0 0.0882,0.0882 0.17638,0.17638 0.52917,0.35278 1.14653,0.17639 1.41112,-0.26458 1.76388,-0.0882 3.43958,-0.0882 5.11527,-0.17639 4.93889,0.44097 10.40695,-0.0882 15.61042,-0.61736 4.85069,-0.0882 9.70139,0.0882 14.55208,-0.26458 0.17639,0 0.26459,-0.35278 0.26459,-0.52917 0,0 0,-0.0882 0,-0.17639 0,-0.0882 0,-0.0882 -0.0882,-0.0882 -0.26458,0 -0.44097,0 -0.70555,-0.0882 0.52916,-0.0882 1.14652,-0.0882 1.67569,-0.17639 -0.17639,0.26459 -0.17639,0.61737 -0.0882,0.88195 0.0882,0.35278 0.44097,-0.26458 0.35277,-0.44097 0,-0.17639 0,-0.35278 0.0882,-0.52917 0.17639,0 0.44097,-0.0882 0.61736,-0.0882 0,0 0.0882,0 0.0882,0 -0.0882,0.26458 -0.17638,0.61736 -0.0882,0.88194 0.0882,0.17639 0.17639,0.26458 0.35278,0.35278 0,0.0882 0,0.26458 0.0882,0.35278 0,0.17638 0.17639,0 0.26459,-0.26459 0.17638,0 0.26458,0 0.44097,0 0.17639,0 0.44097,-0.61736 0.17639,-0.61736 -0.17639,0 -0.44098,0 -0.52917,-0.0882 0,-0.26459 0,-0.44098 0.0882,-0.70556 0.88195,0 1.5875,0 0.70556,-0.52917 -0.17639,0.0882 -0.17639,0.0882 -0.17639,0.0882 0.17639,-0.17639 0.35278,-0.52917 0.17639,-0.61736 0.0882,0 0.0882,0 0.0882,0 0.17639,-0.0882 0.26459,-0.35278 0.26459,-0.52917 z m -1.6757,0.26458 c -0.0882,0 -0.0882,0 -0.0882,0 0,0 0,0 -0.0882,0 0.0882,0 0.0882,0 0.17639,0 z m -2.11666,-0.88194 c -0.26459,-0.0882 -0.52917,-0.17639 -0.79375,-0.26458 0.17639,-0.0882 0.44097,-0.26459 0.61736,-0.35278 0.0882,0.17639 0.17639,0.35278 0.17639,0.61736 z m -0.61736,-0.97014 c 0,0.0882 -0.0882,0.0882 -0.17639,0.0882 -0.0882,0.0882 -0.17639,0.26458 -0.17639,0.44097 -0.17639,-0.17639 -0.26459,-0.35278 -0.26459,-0.52917 0,0 0,-0.17639 -0.0882,-0.17639 -0.0882,0 -0.17639,0 -0.26458,0 0.0882,-0.0882 0.17639,-0.0882 0.26458,-0.17639 0.26458,0.0882 0.52917,0.17639 0.70556,0.35278 z m -2.02848,-0.44097 c 0.0882,0 0.26459,0 0.35278,0 0,0 0.0882,-0.0882 0.17639,-0.17639 0.0882,0 0.17639,0.0882 0.35278,0.0882 -0.0882,0.0882 -0.0882,0.17639 -0.0882,0.26459 -0.26458,0 -0.52916,-0.0882 -0.88194,-0.0882 0.0882,-0.0882 0.0882,-0.0882 0.0882,-0.0882 z m -0.88194,0.70555 c 0.61736,0.26459 1.23472,0.44098 1.85208,0.52917 0.0882,0 0.0882,0 0.0882,-0.0882 0,0.0882 0.0882,0.17639 0.0882,0.17639 0.0882,0.17638 0.26458,0.35277 0.44097,0.44097 -0.52916,0.0882 -1.05833,0.17639 -1.5875,0.26458 -0.88194,0 -1.76389,0.0882 -2.55764,0.17639 0,0 0,0 0,-0.0882 0,-0.0882 0,-0.26459 -0.17638,-0.17639 0,0 -0.0882,0 -0.0882,0.0882 0,-0.0882 -0.0882,-0.0882 -0.0882,0 -0.0882,0 -0.0882,0 -0.0882,0.0882 -0.17639,0 -0.35278,0 -0.52916,0 -0.0882,0 -0.17639,0.17638 -0.17639,0.35277 -0.0882,0 -0.17639,0 -0.26459,0 -0.17639,0.0882 -0.35277,0.44098 -0.26458,0.61736 0,0 0,0 0,0 -0.0882,0 -0.17639,0.0882 -0.26458,0.0882 0,-0.0882 0,-0.0882 0,-0.0882 0.0882,-0.0882 0.35277,-0.44097 0.26458,-0.52916 0,-0.17639 0,-0.35278 0.0882,-0.61736 0.0882,0 0.26459,0 0.35278,-0.0882 0.79375,-0.0882 0.79375,-0.97014 0.26459,-1.41111 0,0 0,-0.0882 0,-0.0882 0.44097,0 0.79375,0 1.14652,0 0.17639,0 0.44098,-0.70556 0.17639,-0.70556 -0.26458,0.0882 -0.61736,0.0882 -0.88194,0.0882 0.0882,-0.0882 0.17639,-0.17639 0.17639,-0.26459 0.52916,0 0.97014,-0.0882 1.41111,-0.17639 0,0.0882 -0.0882,0.17639 -0.0882,0.26459 0,0 0,0 0,0 -0.17639,-0.17639 -0.44097,0.52916 -0.26458,0.61736 0.17639,0.0882 0.35278,0.17639 0.52917,0.26458 -0.0882,0.17639 -0.0882,0.26458 0.0882,0.26458 0.0882,0 0.26458,0 0.35278,0 z m -2.46945,-1.23472 c -0.0882,0.0882 -0.0882,0.17639 -0.17638,0.26459 -0.26459,0 -0.52917,0 -0.79375,0 0,-0.0882 -0.0882,-0.17639 -0.17639,-0.17639 -0.17639,0 -0.35278,0.0882 -0.52917,0.0882 0.52917,-0.0882 1.05833,-0.0882 1.67569,-0.17639 z m -1.76388,-0.97014 c 0,0 0,-0.0882 0,-0.17639 0,0 0.0882,0 0.0882,0 0,0.0882 0,0.17639 0.0882,0.17639 -0.0882,0 -0.17638,0 -0.17638,0 z m 1.5875,-0.0882 c 0.35277,0 0.70555,0 1.14652,-0.0882 -0.17639,0 -0.26458,0.0882 -0.35277,0.0882 -0.26459,0 -0.52917,0 -0.79375,0 z m 1.76388,-0.17639 c 0.17639,0 0.44098,0 0.61737,0 0,0.17639 0,0.26458 -0.0882,0.44097 -0.17639,0 -0.44097,0 -0.70555,0.0882 0,-0.0882 0,-0.0882 0,-0.0882 0.0882,-0.0882 0.17638,-0.26458 0.17638,-0.44097 z m -3.88055,-0.97014 c 0.70555,-0.0882 1.4993,-0.0882 2.29305,-0.0882 -0.0882,0.17639 -0.17638,0.35277 -0.0882,0.44097 -0.52917,0 -1.05833,0.0882 -1.49931,0.0882 0,-0.0882 -0.0882,-0.0882 -0.0882,-0.17639 -0.0882,0 -0.44097,-0.0882 -0.61736,-0.26458 z m -0.26458,4.7625 c 0.52916,0 0.97013,0 1.4993,-0.0882 -0.0882,0.26458 -0.17639,0.52916 -0.17639,0.70555 -0.44097,-0.0882 -0.88194,-0.17639 -1.32291,-0.26458 0,-0.17639 0.0882,-0.35278 0,-0.35278 z m -0.26459,0 c -0.26458,0 -0.44097,0 -0.61736,0 0.17639,0 0.35278,0 0.61736,0 z m -1.41111,0 c 0,0 0,0 0,0 0,0 0,0 0,0 0,0 0,0 0,0 0,0 0,0 0,0 0,0 0,0 0,0 z m -2.20486,0.61736 c 0.35278,0 0.61736,0.0882 0.88194,0.0882 0.26459,0 0.44098,-0.52917 0.35278,-0.61736 0,0 0,0 0.0882,0 0.0882,0.0882 0.17639,0.17638 0.35277,0.35277 -0.17638,0.17639 -0.17638,0.44098 0,0.44098 0,0 0.0882,-0.0882 0.17639,-0.17639 0,0.0882 0,0.17639 0.0882,0.35277 0.0882,0.0882 0.35278,-0.26458 0.35278,-0.52916 0.35277,0.0882 0.70555,0.0882 1.05833,0.0882 -0.0882,0.17639 -0.0882,0.35278 0.0882,0.35278 0.35278,0 0.61736,0.0882 0.97014,0.17639 -1.4993,0.0882 -3.0868,0.17639 -4.40972,-0.44097 0,0 0,-0.0882 0,-0.0882 z m -5.11528,-1.4993 c 0.35278,0 0.70556,-0.0882 1.05834,-0.0882 0.61736,0 1.32291,0 1.94027,0.0882 0.17639,0 0.26459,-0.35278 0.26459,-0.52917 0.0882,-0.17639 0.0882,-0.35278 0,-0.44097 -0.44098,-0.0882 -0.88195,-0.26459 -1.41111,-0.26459 1.14652,-0.70555 2.20486,-0.17638 3.175,0.70556 0,0 -0.0882,0 -0.0882,0 -0.52917,0.26458 -0.70555,0.79375 -0.52917,1.23472 -0.26458,0 -0.52916,-0.0882 -0.79375,-0.0882 -0.0882,0 -0.0882,0 -0.17638,0 -1.23473,-0.17639 -2.46945,-0.35278 -3.70417,-0.52917 0.0882,0 0.17639,0 0.26458,-0.0882 z m -21.96041,-2.20486 c -0.35278,-0.61737 -0.88195,-1.05834 -1.49931,-1.32292 0.0882,-0.0882 0.0882,-0.0882 0.0882,-0.17639 0.61737,-0.0882 1.32292,-0.0882 1.94028,0 0.17639,0 0.44097,-0.70556 0.17639,-0.70556 -0.70555,-0.0882 -1.41111,0 -2.11667,0.0882 0.79375,-0.17639 1.85209,-0.35278 2.38125,0 0.70556,0.52917 1.5875,0.79375 2.38125,0.88194 3.52778,1.5875 7.32014,2.38125 11.02431,3.08681 2.29306,0.44097 4.58611,0.79375 6.87917,1.05833 0,0.0882 0,0.0882 0,0.0882 0,0 0.0882,0 0.0882,0 0.52917,0 1.05833,0.0882 1.49931,0.17639 0,0 -0.0882,0 -0.17639,0.0882 -4.05695,-0.17639 -8.20209,-0.79375 -12.08264,-1.85208 -1.76389,-0.44098 -3.52778,-0.97014 -5.29167,-1.32292 -0.61736,-0.0882 -1.4993,-0.35278 -2.20486,-0.17639 0.0882,-0.26458 0.0882,-0.44097 -0.0882,-0.44097 -0.97014,0.0882 -1.94028,0.26458 -2.99861,0.52917 z m 3.88055,6.17361 c 0.0882,0.0882 0,0.0882 0,0 z m 0.17639,0.26458 c 0,-0.0882 -0.0882,-0.17639 -0.17639,-0.26458 0,-0.0882 0,-0.0882 0,-0.17639 0,-0.26459 0.0882,-0.52917 0.0882,-0.88195 0,-0.0882 0.0882,-0.26458 0.0882,-0.35277 1.23472,0.70555 2.64583,1.14652 4.05694,1.4993 -1.32291,0.0882 -2.73402,0.0882 -4.05694,0.17639 z m 33.95486,-0.97014 c -1.5875,0 -3.175,0.0882 -4.7625,0.0882 1.5875,-0.0882 3.2632,-0.17639 4.8507,-0.35278 0,0.0882 -0.0882,0.17639 -0.0882,0.26458 z m 2.91042,-1.4993 c -0.0882,0.0882 -0.17639,0.26458 -0.26459,0.35277 -17.28611,1.32292 -17.28611,1.32292 -17.28611,1.32292 -1.76389,0 -3.52777,0.0882 -5.29166,0.17639 0,-0.0882 -0.0882,-0.0882 -0.0882,-0.0882 -2.11666,0.17639 -4.14514,0.26459 -6.2618,0.35278 -2.64584,-0.17639 -5.20348,-0.70555 -7.49653,-2.02847 -0.0882,-0.0882 -0.0882,-0.0882 -0.17639,-0.0882 0.0882,-0.26459 0.0882,-0.61737 0,-0.88195 -0.0882,-1.4993 -0.97014,-2.46944 -2.46944,-2.46944 -0.44098,0 -0.70556,0.26458 -0.79375,0.61736 -0.17639,-0.17639 -0.35278,-0.26459 -0.52917,-0.44097 0.0882,-0.0882 0.0882,-0.17639 0.0882,-0.17639 0,-0.0882 -0.0882,-0.0882 -0.0882,-0.0882 0.70555,-0.17639 1.41111,-0.26458 2.11667,-0.35278 -0.0882,0.26459 -0.17639,0.70556 0.0882,0.52917 0.88194,-0.70555 3.35139,0.26458 4.32153,0.44097 1.4993,0.35278 3.0868,0.79375 4.6743,1.23473 2.20486,0.52916 4.49792,0.70555 6.79098,1.05833 1.14652,0.0882 2.20486,0.26458 3.35138,0.35278 -0.0882,0.17639 -0.17638,0.61736 0,0.52916 0.26459,-0.17639 0.61737,-0.35277 0.97014,-0.44097 1.05834,0 2.11667,0.0882 3.175,0.0882 0.70556,0.52916 1.41111,0.88194 2.46945,0.88194 1.4993,0.0882 3.0868,0 4.6743,0 0.17639,0 0.44098,-0.70556 0.17639,-0.70556 0,0 0,0 0,0 0,0 0,0 0.0882,-0.0882 0.35277,0 0.79375,-0.0882 1.14652,-0.17639 0,0.17639 0,0.26458 0.0882,0.26458 0.61736,-0.17638 1.23472,-0.26458 1.85208,-0.35277 -0.0882,0.17639 -0.0882,0.35277 0,0.35277 0.44097,-0.0882 0.88195,-0.0882 1.32292,-0.0882 0.0882,0 0.17639,-0.0882 0.26458,-0.17639 0.61736,0 1.23472,0 1.94028,-0.0882 0.35278,0.0882 0.79375,0.0882 1.23472,0.17639 -0.0882,0 -0.0882,0 -0.0882,0 z m 0.79375,0.26458 c -0.61736,0.0882 -0.61736,0.0882 -0.61736,0.0882 0.0882,0 0.0882,0 0.0882,0 0.0882,-0.0882 0.17639,-0.17639 0.26458,-0.26458 0.0882,0 0.26459,0 0.44098,0 -0.0882,0.0882 -0.0882,0.17639 -0.17639,0.17639 z m 0.0882,0.88194 c -0.0882,-0.0882 0,-0.26458 0.0882,-0.44097 0,0 0,0 0,0 0,0.17639 -0.0882,0.35278 -0.0882,0.44097 z m 0.70556,-0.88194 c 0,0 0,0 0,0 0,0 0,0 0.0882,0 z"
       style="fill:#000000;fill-opacity:1;fill-rule:nonzero;stroke:none;stroke-width:0.264583" />
    <path
       id="ship_bts__flare02"
       d="m 137.59862,128.95745 c -0.35278,-0.0882 -0.70555,-0.26458 -0.97014,-0.35277 -0.17639,0 -0.17639,0.35277 -0.0882,0.44097 0.0882,0 0.0882,0 0.0882,0 -0.44097,0 -0.88194,-0.0882 -1.41111,-0.0882 -0.0882,0 -0.0882,0.17639 0,0.35278 -0.26458,0 -0.44097,0 -0.70555,0 0,0 -0.0882,0.0882 -0.0882,0.17639 -0.26458,0 -0.44097,0 -0.70555,0 -0.17639,0 -0.0882,0.44097 0,0.44097 0.61736,0 1.32291,0 1.94027,-0.0882 0,0 0.0882,-0.0882 0.0882,-0.17639 0.17639,0.0882 0.26458,0.0882 0.44097,0.0882 0.0882,0 0.0882,-0.17639 0.0882,-0.26458 0.0882,0 0.0882,0 0.17639,0 0,0.0882 0.0882,0.17639 0.0882,0.17639 0.0882,0 0.0882,0 0.0882,0 -0.0882,0 -0.0882,0.44097 0,0.44097 0.26459,0 0.52917,-0.0882 0.70556,-0.0882 0.0882,0 0.0882,-0.26459 0.0882,-0.35278 0,-0.17639 0,-0.35278 -0.17639,-0.35278 0,0 0,0 0,0 0,0 0,0 0,0 0.0882,0 0.17639,0.0882 0.26459,0.0882 0.17639,0.0882 0.17639,-0.35278 0.0882,-0.44098 z"
       style="fill:#000000;fill-opacity:1;fill-rule:nonzero;stroke:none;stroke-width:0.264583" />
    <path
       id="ship_bts__flare01"
       d="m 142.8021,129.31023 c -0.17639,-0.0882 -0.35278,-0.17639 -0.52917,-0.26458 0,0 0,0 0,0.0882 -0.0882,0 -0.17639,0 -0.17639,-0.0882 -0.17639,0 -0.0882,0.35278 0,0.44097 0.0882,0 0.17639,0 0.35278,0.0882 -0.17639,-0.0882 -0.35278,-0.0882 -0.52917,-0.0882 0,-0.0882 -0.0882,-0.35278 -0.17639,-0.26458 -0.44097,0 -0.88194,0 -1.32291,0 -0.0882,0 0,0.35277 0.0882,0.35277 0.35278,0 0.70556,0 1.05833,0 0,0.0882 0,0.17639 0.0882,0.26459 -0.44097,0.0882 -0.88195,0.0882 -1.32292,0.17639 -0.0882,0 -0.0882,0 -0.0882,0.0882 -0.26459,0 -0.26459,0 -0.26459,0 0,0 0,-0.0882 0,-0.0882 0.0882,0 0.0882,0 0.0882,-0.0882 0.17639,0 0,-0.44097 -0.0882,-0.35278 -0.0882,0.0882 -0.17638,0.17639 -0.26458,0.17639 -0.0882,0 -0.0882,0.0882 0,0.26459 -0.0882,0 -0.17639,0 -0.26458,0 -0.35278,-0.26459 -0.35278,-0.26459 -0.35278,-0.26459 0,-0.0882 0,-0.17639 -0.0882,-0.17639 -0.88195,0.0882 -1.6757,0 -2.55764,0 -0.17639,0 0,0.35278 0.0882,0.35278 0.88195,0 1.6757,0.0882 2.55764,0 0,0 0,0 0,0 0.17639,0.0882 0.17639,0.0882 0.17639,0.0882 -0.0882,0 -0.0882,0 -0.0882,0 -0.0882,0 0,0.44097 0.0882,0.44097 0.26458,0 0.52917,-0.0882 0.70555,-0.17639 0.0882,0 0.0882,0 0.0882,-0.0882 0,0 0.0882,-0.0882 0.17639,-0.0882 0,0.17639 0.0882,0.26458 0.17639,0.26458 0.52916,-0.0882 1.05833,-0.0882 1.5875,-0.17638 0,0 0,-0.17639 0,-0.26459 0.0882,0 0.17639,0 0.26458,0 0,0 -0.0882,0 -0.0882,0 -0.17639,0 0,0.44097 0.0882,0.35278 0.0882,0 0.26458,0 0.35278,0 0.0882,0 0.0882,-0.26458 0,-0.35278 0,0 0.0882,0 0.0882,0 0.17639,0.0882 0.0882,-0.35278 0,-0.35278 -0.0882,0 -0.0882,0 -0.0882,0 0,0 0,0 0,0 0.0882,0 0.17639,0.0882 0.26458,0.0882 0.0882,0 0,-0.35278 -0.0882,-0.35278 z"
       style="fill:#000000;fill-opacity:1;fill-rule:nonzero;stroke:none;stroke-width:0.264583" />
    <path
       id="ship_bts__flare03"
       d="m 134.33543,130.45676 c -0.0882,0 -0.17639,0 -0.35278,0 0,-0.17639 0,-0.35278 -0.0882,-0.35278 -0.26458,0 -0.44097,0 -0.70555,0 -0.0882,0 -0.0882,0.44097 0.0882,0.44097 0.17639,0 0.26459,0 0.44098,0 0,0.0882 0,0.0882 0,0.17639 0,0 -0.0882,0 -0.17639,0 0,-0.0882 0,-0.17639 -0.0882,-0.17639 -0.79375,0.0882 -1.4993,0.0882 -2.29305,0.26459 0,0 0,0 -0.0882,0.0882 -0.17639,0 -0.17639,0 -0.17639,0 0,-0.0882 -0.0882,-0.17639 -0.0882,-0.17639 -0.26458,0 -0.44097,0 -0.61736,0.0882 -0.0882,0 -0.0882,0.44097 0.0882,0.44097 0.17639,-0.0882 0.35278,-0.17639 0.52917,-0.0882 0.0882,0 0.0882,-0.0882 0.0882,-0.0882 0.17639,-0.0882 0.17639,-0.0882 0.17639,-0.0882 0.0882,0.0882 0.0882,0.26458 0.17639,0.17638 0.35278,-0.0882 0.61736,-0.0882 0.97014,-0.0882 -0.0882,0 -0.17639,0 -0.26458,0 -0.0882,0.0882 0,0.44097 0.0882,0.44097 0.61736,-0.0882 1.32292,-0.0882 1.85208,-0.35278 0.17639,0 0.26459,0 0.35278,0 0.0882,0 0.0882,-0.17638 0.0882,-0.26458 0,0 0,0 0.0882,0 0.0882,0 0.0882,-0.44097 -0.0882,-0.44097 z"
       style="fill:#000000;fill-opacity:1;fill-rule:nonzero;stroke:none;stroke-width:0.264583" />
  </g>
</svg>
